<svg xmlns="http://www.w3.org/2000/svg" enable-background="new 206 -206 512 512" viewBox="206 -206 512 512"><path d="M462-177.7c-125.8,0-227.8,102-227.8,227.9c0,60.4,24,118.4,66.7,161.1c88.8,89.2,233,89.6,322.2,0.8
		s89.6-233,0.8-322.2c-0.3-0.3-0.6-0.6-0.8-0.8C580.5-153.9,522.5-177.9,462-177.7z M462,258c-114.6,0-207.9-93.2-207.9-207.8
		S347.4-157.7,462-157.7S669.8-64.5,669.8,50.1S576.6,258,462,258L462,258z"/><path d="M522.6-27c0-5.5-4.5-10-10-10H411.4c-5.5,0-10,4.5-10,10s4.5,10,10,10h29c14.5,0.1,27.3,9.3,31.9,23h-60.9
		c-5.5,0-10,4.5-10,10s4.5,10,10,10h60.9c-1.6,5.2-4.5,10-8.3,13.9c-6.2,6.4-14.7,10-23.6,10.1h-29c-5.3-0.2-9.8,4-10,9.3
		c-0.1,2.8,1,5.6,3.1,7.5l72.4,68.4c4,3.8,10.4,3.6,14.1-0.5c3.7-3.8,3.6-9.9-0.2-13.6c-0.1-0.1-0.2-0.1-0.2-0.2L436.5,70h3.8
		c14.2-0.1,27.8-5.8,37.8-15.9c7.7-7.6,12.9-17.4,14.7-28.1h19.8c5.5,0,10-4.5,10-10s-4.5-10-10-10h-19.8c-1.4-8.5-5.2-16.5-10.9-23
		h30.6C518.1-17,522.6-21.5,522.6-27C522.6-27,522.6-27,522.6-27z"/><path d="M462-124.3c-96.2,0-174.4,78.2-174.4,174.4S365.8,224.5,462,224.5s174.4-78.2,174.4-174.4
		S558.2-124.3,462-124.3z M462,204.5c-85.1,0-154.4-69.3-154.4-154.4S376.9-104.3,462-104.3S616.4-35,616.4,50.1
		S547.1,204.5,462,204.5L462,204.5z"/></svg>