<svg xmlns="http://www.w3.org/2000/svg" width="32" height="32" viewBox="0 0 32 32"><path style="line-height:normal;text-indent:0;text-align:start;text-decoration-line:none;text-decoration-style:solid;text-decoration-color:#000;text-transform:none;block-progression:tb;white-space:normal;isolation:auto;mix-blend-mode:normal;solid-color:#000;solid-opacity:1" d="M 21.152344 2.0019531 L 20.091797 3.8496094 L 20.958984 4.3476562 L 22.019531 2.5 L 21.152344 2.0019531 z M 24.308594 4.2714844 L 22.806641 5.78125 L 23.515625 6.4863281 L 25.017578 4.9765625 L 24.308594 4.2714844 z M 16.125 4.2890625 A 0.49889099 0.50120627 14.999782 0 0 15.902344 4.3554688 L 14.064453 5.421875 A 0.49889099 0.50120627 14.999782 0 0 13.880859 6.1074219 L 14.138672 6.5566406 A 0.50005 0.50005 0 0 0 14.144531 6.5683594 C 15.036032 8.1207594 14.510985 10.093081 12.96875 10.988281 L 10.986328 12.138672 L 8.3730469 13.654297 L 7.9492188 13.902344 L 7.9472656 13.902344 A 0.50005 0.50005 0 0 0 7.9121094 13.919922 L 6.9941406 14.453125 L 4.6972656 15.787109 C 3.7008039 16.365509 3.3574101 17.654297 3.9316406 18.654297 L 3.9492188 18.685547 L 3 19.236328 C 2.5127685 19.519128 2.3427863 20.158484 2.6230469 20.646484 L 3.6855469 22.494141 C 3.9656951 22.982741 4.6067836 23.155547 5.09375 22.873047 L 6.0390625 22.326172 L 6.0527344 22.349609 C 6.5332721 23.18643 7.5130709 23.557464 8.4042969 23.320312 L 10.482422 30.253906 A 0.44402092 0.56264322 21.587751 0 0 11.066406 30.486328 L 14.291016 28.615234 A 0.44402092 0.56264322 21.587751 0 0 14.582031 27.875 L 12.529297 21.023438 L 12.589844 20.988281 L 15.203125 19.470703 L 17.185547 18.320312 C 18.726981 17.425676 20.682079 17.953374 21.574219 19.503906 L 21.839844 19.966797 A 0.49889099 0.50120627 14.999782 0 0 22.521484 20.150391 L 24.359375 19.082031 A 0.49889099 0.50120627 14.999782 0 0 24.542969 18.398438 L 22.378906 14.628906 C 23.8072 13.512881 24.248283 11.483084 23.320312 9.8671875 C 22.392481 8.2515342 20.423229 7.621317 18.748047 8.3066406 L 16.583984 4.5390625 A 0.49889099 0.50120627 14.999782 0 0 16.125 4.2890625 z M 15.966797 5.4746094 L 18.099609 9.1894531 A 0.49889102 0.5012063 14.999782 0 0 18.105469 9.1992188 L 19.697266 11.96875 L 19.875 12.277344 L 21.289062 14.742188 A 0.49889102 0.5012063 14.999782 0 0 21.316406 14.785156 L 23.429688 18.466797 L 22.455078 19.03125 L 22.445312 19.011719 A 0.50005 0.50005 0 0 0 22.441406 19.005859 L 15.011719 6.0703125 L 14.994141 6.0390625 L 15.966797 5.4746094 z M 26.773438 7.2871094 L 24.935547 8.3535156 L 25.4375 9.21875 L 27.275391 8.1503906 L 26.773438 7.2871094 z M 15.458984 8.8574219 L 20.263672 17.222656 C 19.119637 16.787256 17.81947 16.794678 16.681641 17.455078 L 14.701172 18.605469 L 12.087891 20.123047 L 12.064453 20.138672 L 8.8457031 14.537109 L 8.875 14.519531 L 11.488281 13.001953 L 13.470703 11.853516 C 14.607723 11.193616 15.261892 10.068422 15.458984 8.8574219 z M 20.21875 9.1542969 C 21.11405 9.1340656 21.971754 9.5241906 22.457031 10.369141 C 23.104068 11.495841 22.722754 12.791753 21.802734 13.626953 L 20.5625 11.466797 L 19.324219 9.3105469 C 19.619097 9.2146969 19.920317 9.1610406 20.21875 9.1542969 z M 28.378906 10.837891 L 26.328125 11.390625 L 26.587891 12.355469 L 28.638672 11.804688 L 28.378906 10.837891 z M 26.892578 14.6875 L 26.892578 15.6875 L 29.013672 15.6875 L 29.013672 14.6875 L 26.892578 14.6875 z M 7.9804688 15.039062 L 11.197266 20.638672 L 10.708984 20.921875 L 8.4101562 22.255859 C 7.8790775 22.564059 7.2276212 22.389416 6.9199219 21.853516 L 6.671875 21.421875 A 0.50005 0.50005 0 0 0 6.6679688 21.414062 L 6.65625 21.392578 L 5.0644531 18.619141 A 0.50005 0.50005 0 0 0 5.0546875 18.601562 L 4.7988281 18.158203 C 4.4911175 17.622403 4.6681604 16.960544 5.1992188 16.652344 L 7.4960938 15.320312 L 7.9804688 15.039062 z M 4.4472656 19.554688 L 5.5410156 21.458984 L 4.5917969 22.009766 C 4.5696019 22.022766 4.5666124 22.022047 4.5527344 21.998047 L 3.4902344 20.150391 C 3.4764694 20.126391 3.4800221 20.116516 3.5019531 20.103516 L 4.4472656 19.554688 z M 11.650391 21.529297 L 13.560547 27.898438 L 11.214844 29.261719 L 9.3046875 22.890625 L 11.210938 21.785156 L 11.650391 21.529297 z " color="#000" enable-background="accumulate" font-family="sans-serif" font-weight="400" overflow="visible"/></svg>